<mxfile host="app.diagrams.net" modified="2023-12-19T09:13:57.283Z" agent="Mozilla/5.0 (Windows NT 10.0; Win64; x64) AppleWebKit/537.36 (KHTML, like Gecko) Chrome/120.0.0.0 Safari/537.36" etag="k8IvAFVyZshnrl_GW6Yb" version="22.1.11" type="device">
  <diagram name="페이지-1" id="qC4t405uaYkFApYWaD2H">
    <mxGraphModel dx="1301" dy="556" grid="0" gridSize="10" guides="1" tooltips="1" connect="1" arrows="1" fold="1" page="1" pageScale="1" pageWidth="827" pageHeight="1169" math="0" shadow="0">
      <root>
        <mxCell id="0" />
        <mxCell id="1" parent="0" />
        <mxCell id="6mIK9M1rXZt4yNKwpEMZ-11" value="" style="endArrow=none;html=1;rounded=0;exitX=0.814;exitY=0.016;exitDx=0;exitDy=0;exitPerimeter=0;strokeWidth=3;strokeColor=#00FF00;entryX=0;entryY=1;entryDx=0;entryDy=0;" edge="1" parent="1" source="6mIK9M1rXZt4yNKwpEMZ-1" target="6mIK9M1rXZt4yNKwpEMZ-22">
          <mxGeometry width="50" height="50" relative="1" as="geometry">
            <mxPoint x="510" y="360" as="sourcePoint" />
            <mxPoint x="510" y="279" as="targetPoint" />
          </mxGeometry>
        </mxCell>
        <mxCell id="6mIK9M1rXZt4yNKwpEMZ-12" value="" style="endArrow=none;html=1;rounded=0;exitX=0.927;exitY=0.016;exitDx=0;exitDy=0;exitPerimeter=0;strokeWidth=3;strokeColor=#CC00CC;entryX=0.5;entryY=1;entryDx=0;entryDy=0;" edge="1" parent="1" source="6mIK9M1rXZt4yNKwpEMZ-1" target="6mIK9M1rXZt4yNKwpEMZ-22">
          <mxGeometry width="50" height="50" relative="1" as="geometry">
            <mxPoint x="540" y="360" as="sourcePoint" />
            <mxPoint x="540" y="279" as="targetPoint" />
          </mxGeometry>
        </mxCell>
        <mxCell id="6mIK9M1rXZt4yNKwpEMZ-10" value="" style="endArrow=none;html=1;rounded=0;exitX=0.07;exitY=0.01;exitDx=0;exitDy=0;exitPerimeter=0;strokeWidth=3;strokeColor=#e1ff00;" edge="1" parent="1">
          <mxGeometry width="50" height="50" relative="1" as="geometry">
            <mxPoint x="330" y="361.24" as="sourcePoint" />
            <mxPoint x="330" y="280.24" as="targetPoint" />
          </mxGeometry>
        </mxCell>
        <mxCell id="6mIK9M1rXZt4yNKwpEMZ-9" value="" style="endArrow=none;html=1;rounded=0;exitX=0.07;exitY=0.01;exitDx=0;exitDy=0;exitPerimeter=0;strokeWidth=3;strokeColor=#4400ff;" edge="1" parent="1" source="6mIK9M1rXZt4yNKwpEMZ-1">
          <mxGeometry width="50" height="50" relative="1" as="geometry">
            <mxPoint x="293" y="341" as="sourcePoint" />
            <mxPoint x="300" y="280" as="targetPoint" />
          </mxGeometry>
        </mxCell>
        <mxCell id="6mIK9M1rXZt4yNKwpEMZ-4" value="" style="strokeWidth=3;html=1;shape=mxgraph.flowchart.annotation_2;align=left;labelPosition=right;pointerEvents=1;rotation=-90;fontColor=#ff0026;strokeColor=#FF3333;" vertex="1" parent="1">
          <mxGeometry x="394.12" y="271.62" width="81.5" height="98.25" as="geometry" />
        </mxCell>
        <mxCell id="6mIK9M1rXZt4yNKwpEMZ-5" value="" style="strokeWidth=3;html=1;shape=mxgraph.flowchart.annotation_2;align=left;labelPosition=right;pointerEvents=1;rotation=-90;" vertex="1" parent="1">
          <mxGeometry x="355.63" y="258.13" width="106.25" height="97.5" as="geometry" />
        </mxCell>
        <mxCell id="6mIK9M1rXZt4yNKwpEMZ-1" value="&lt;font style=&quot;font-size: 42px;&quot;&gt;ESP8266&lt;/font&gt;" style="rounded=0;whiteSpace=wrap;html=1;fillColor=#000000;fontColor=#ffffff;" vertex="1" parent="1">
          <mxGeometry x="280" y="360" width="280" height="130" as="geometry" />
        </mxCell>
        <mxCell id="6mIK9M1rXZt4yNKwpEMZ-2" value="&lt;font style=&quot;font-size: 24px;&quot;&gt;BMP280&lt;/font&gt;" style="rounded=0;whiteSpace=wrap;html=1;fillColor=#B266FF;fillStyle=solid;fontColor=#ffffff;strokeColor=#A50040;gradientColor=none;" vertex="1" parent="1">
          <mxGeometry x="282" y="169" width="120" height="110" as="geometry" />
        </mxCell>
        <mxCell id="6mIK9M1rXZt4yNKwpEMZ-3" value="&lt;font color=&quot;#ffffff&quot; style=&quot;font-size: 24px;&quot;&gt;PMS7003&lt;/font&gt;" style="rounded=0;whiteSpace=wrap;html=1;fillColor=#3399FF;" vertex="1" parent="1">
          <mxGeometry x="432" y="169" width="160" height="110" as="geometry" />
        </mxCell>
        <mxCell id="6mIK9M1rXZt4yNKwpEMZ-6" value="Vcc" style="text;html=1;strokeColor=none;fillColor=none;align=center;verticalAlign=middle;whiteSpace=wrap;rounded=0;fontColor=#ffffff;" vertex="1" parent="1">
          <mxGeometry x="408.5" y="358" width="60" height="30" as="geometry" />
        </mxCell>
        <mxCell id="6mIK9M1rXZt4yNKwpEMZ-7" value="GND" style="text;html=1;strokeColor=none;fillColor=none;align=center;verticalAlign=middle;whiteSpace=wrap;rounded=0;fontColor=#ffffff;" vertex="1" parent="1">
          <mxGeometry x="378.5" y="359" width="60" height="30" as="geometry" />
        </mxCell>
        <mxCell id="6mIK9M1rXZt4yNKwpEMZ-13" value="D1&lt;br&gt;SCL" style="text;html=1;strokeColor=none;fillColor=none;align=center;verticalAlign=middle;whiteSpace=wrap;rounded=0;fontColor=#ffffff;" vertex="1" parent="1">
          <mxGeometry x="270" y="359" width="60" height="30" as="geometry" />
        </mxCell>
        <mxCell id="6mIK9M1rXZt4yNKwpEMZ-14" value="D2&lt;br&gt;SDA" style="text;html=1;strokeColor=none;fillColor=none;align=center;verticalAlign=middle;whiteSpace=wrap;rounded=0;fontColor=#ffffff;" vertex="1" parent="1">
          <mxGeometry x="300" y="359" width="60" height="30" as="geometry" />
        </mxCell>
        <mxCell id="6mIK9M1rXZt4yNKwpEMZ-15" value="SCL" style="text;html=1;strokeColor=none;fillColor=none;align=center;verticalAlign=middle;whiteSpace=wrap;rounded=0;fontColor=#ffffff;" vertex="1" parent="1">
          <mxGeometry x="270" y="249" width="60" height="30" as="geometry" />
        </mxCell>
        <mxCell id="6mIK9M1rXZt4yNKwpEMZ-16" value="SCL" style="text;html=1;strokeColor=none;fillColor=none;align=center;verticalAlign=middle;whiteSpace=wrap;rounded=0;fontColor=#ffffff;" vertex="1" parent="1">
          <mxGeometry x="300" y="249" width="60" height="30" as="geometry" />
        </mxCell>
        <mxCell id="6mIK9M1rXZt4yNKwpEMZ-17" value="GND" style="text;html=1;strokeColor=none;fillColor=none;align=center;verticalAlign=middle;whiteSpace=wrap;rounded=0;fontColor=#ffffff;" vertex="1" parent="1">
          <mxGeometry x="329" y="249" width="60" height="30" as="geometry" />
        </mxCell>
        <mxCell id="6mIK9M1rXZt4yNKwpEMZ-18" value="VDD" style="text;html=1;strokeColor=none;fillColor=none;align=center;verticalAlign=middle;whiteSpace=wrap;rounded=0;fontColor=#ffffff;" vertex="1" parent="1">
          <mxGeometry x="358" y="249" width="60" height="30" as="geometry" />
        </mxCell>
        <mxCell id="6mIK9M1rXZt4yNKwpEMZ-19" value="GND" style="text;html=1;strokeColor=none;fillColor=none;align=center;verticalAlign=middle;whiteSpace=wrap;rounded=0;fontColor=#ffffff;" vertex="1" parent="1">
          <mxGeometry x="428" y="249" width="60" height="30" as="geometry" />
        </mxCell>
        <mxCell id="6mIK9M1rXZt4yNKwpEMZ-20" value="Vcc" style="text;html=1;strokeColor=none;fillColor=none;align=center;verticalAlign=middle;whiteSpace=wrap;rounded=0;fontColor=#ffffff;" vertex="1" parent="1">
          <mxGeometry x="456" y="249" width="60" height="30" as="geometry" />
        </mxCell>
        <mxCell id="6mIK9M1rXZt4yNKwpEMZ-21" value="Rx" style="text;html=1;strokeColor=none;fillColor=none;align=center;verticalAlign=middle;whiteSpace=wrap;rounded=0;fontColor=#ffffff;" vertex="1" parent="1">
          <mxGeometry x="479.62" y="249" width="60" height="30" as="geometry" />
        </mxCell>
        <mxCell id="6mIK9M1rXZt4yNKwpEMZ-22" value="Tx" style="text;html=1;strokeColor=none;fillColor=none;align=center;verticalAlign=middle;whiteSpace=wrap;rounded=0;fontColor=#ffffff;" vertex="1" parent="1">
          <mxGeometry x="510" y="249" width="60" height="30" as="geometry" />
        </mxCell>
        <mxCell id="6mIK9M1rXZt4yNKwpEMZ-23" value="D5" style="text;html=1;strokeColor=none;fillColor=none;align=center;verticalAlign=middle;whiteSpace=wrap;rounded=0;fontColor=#ffffff;" vertex="1" parent="1">
          <mxGeometry x="475.62" y="360" width="60" height="30" as="geometry" />
        </mxCell>
        <mxCell id="6mIK9M1rXZt4yNKwpEMZ-24" value="D6" style="text;html=1;strokeColor=none;fillColor=none;align=center;verticalAlign=middle;whiteSpace=wrap;rounded=0;fontColor=#ffffff;" vertex="1" parent="1">
          <mxGeometry x="510" y="360" width="60" height="30" as="geometry" />
        </mxCell>
      </root>
    </mxGraphModel>
  </diagram>
</mxfile>
